<svg width="136" height="40" viewBox="0 0 136 40" fill="none" xmlns="http://www.w3.org/2000/svg">
<g clip-path="url(#clip0_1345_44)">
<path d="M130.336 40H5.33594C2.58594 40 0.335938 37.75 0.335938 35V5C0.335938 2.25 2.58594 0 5.33594 0H130.336C133.086 0 135.336 2.25 135.336 5V35C135.336 37.75 133.086 40 130.336 40Z" fill="black"/>
<path d="M130.336 0.8C132.656 0.8 134.536 2.68 134.536 5V35C134.536 37.32 132.656 39.2 130.336 39.2H5.33594C3.01594 39.2 1.13594 37.32 1.13594 35V5C1.13594 2.68 3.01594 0.8 5.33594 0.8H130.336ZM130.336 0H5.33594C2.58594 0 0.335938 2.25 0.335938 5V35C0.335938 37.75 2.58594 40 5.33594 40H130.336C133.086 40 135.336 37.75 135.336 35V5C135.336 2.25 133.086 0 130.336 0Z" fill="#A6A6A6"/>
<path d="M68.476 21.75C66.126 21.75 64.206 23.54 64.206 26C64.206 28.45 66.126 30.25 68.476 30.25C70.826 30.25 72.746 28.45 72.746 26C72.746 23.54 70.826 21.75 68.476 21.75ZM68.476 28.58C67.186 28.58 66.076 27.5201 66.076 26C66.076 24.47 67.186 23.42 68.476 23.42C69.766 23.42 70.876 24.47 70.876 26C70.876 27.5201 69.756 28.58 68.476 28.58ZM59.156 21.75C56.806 21.75 54.886 23.54 54.886 26C54.886 28.45 56.806 30.25 59.156 30.25C61.506 30.25 63.426 28.45 63.426 26C63.426 23.54 61.506 21.75 59.156 21.75ZM59.156 28.58C57.866 28.58 56.756 27.5201 56.756 26C56.756 24.47 57.866 23.42 59.156 23.42C60.446 23.42 61.556 24.47 61.556 26C61.556 27.5201 60.446 28.58 59.156 28.58ZM48.076 23.06V24.8601H52.396C52.266 25.8701 51.926 26.62 51.416 27.13C50.786 27.76 49.806 28.4501 48.086 28.4501C45.426 28.4501 43.346 26.31 43.346 23.65C43.346 20.99 45.426 18.85 48.086 18.85C49.516 18.85 50.566 19.41 51.336 20.14L52.606 18.8701C51.526 17.8401 50.096 17.05 48.076 17.05C44.436 17.05 41.376 20.01 41.376 23.66C41.376 27.3 44.436 30.2701 48.076 30.2701C50.046 30.2701 51.526 29.63 52.686 28.42C53.876 27.23 54.246 25.5501 54.246 24.2001C54.246 23.7801 54.216 23.39 54.146 23.07H48.076V23.06ZM93.386 24.46C93.036 23.51 91.956 21.75 89.746 21.75C87.556 21.75 85.736 23.47 85.736 26C85.736 28.38 87.536 30.25 89.956 30.25C91.906 30.25 93.036 29.0601 93.496 28.3701L92.046 27.4C91.566 28.11 90.906 28.58 89.956 28.58C89.006 28.58 88.326 28.1401 87.896 27.2901L93.586 24.9401L93.386 24.46ZM87.586 25.88C87.536 24.24 88.856 23.4 89.806 23.4C90.546 23.4 91.176 23.77 91.386 24.3L87.586 25.88ZM82.966 30H84.836V17.5H82.966V30ZM79.906 22.7001H79.836C79.416 22.2001 78.616 21.75 77.596 21.75C75.466 21.75 73.516 23.62 73.516 26.0201C73.516 28.4001 75.466 30.26 77.596 30.26C78.606 30.26 79.416 29.8101 79.836 29.2901H79.896V29.9C79.896 31.53 79.026 32.4001 77.626 32.4001C76.486 32.4001 75.776 31.58 75.486 30.89L73.856 31.57C74.326 32.7 75.566 34.0801 77.626 34.0801C79.816 34.0801 81.666 32.79 81.666 29.65V22.01H79.896V22.7001H79.906ZM77.756 28.58C76.466 28.58 75.386 27.5 75.386 26.0201C75.386 24.5201 76.466 23.43 77.756 23.43C79.026 23.43 80.026 24.5301 80.026 26.0201C80.036 27.5 79.036 28.58 77.756 28.58ZM102.146 17.5H97.676V30H99.546V25.26H102.156C104.226 25.26 106.256 23.76 106.256 21.38C106.256 19 104.206 17.5 102.146 17.5ZM102.186 23.5201H99.536V19.23H102.186C103.586 19.23 104.376 20.3901 104.376 21.3701C104.376 22.3501 103.586 23.5201 102.186 23.5201ZM113.726 21.73C112.376 21.73 110.976 22.33 110.396 23.64L112.056 24.33C112.406 23.64 113.066 23.41 113.756 23.41C114.726 23.41 115.706 23.9901 115.716 25.0201V25.15C115.376 24.96 114.656 24.67 113.766 24.67C111.976 24.67 110.166 25.65 110.166 27.48C110.166 29.15 111.626 30.23 113.266 30.23C114.516 30.23 115.216 29.67 115.646 29.01H115.706V29.98H117.506V25.1901C117.516 22.97 115.856 21.73 113.726 21.73ZM113.496 28.58C112.886 28.58 112.036 28.2701 112.036 27.5201C112.036 26.5601 113.096 26.1901 114.016 26.1901C114.836 26.1901 115.226 26.3701 115.716 26.6101C115.576 27.76 114.576 28.58 113.496 28.58ZM124.076 22L121.936 27.42H121.876L119.656 22H117.646L120.976 29.58L119.076 33.7901H121.026L126.156 22H124.076ZM107.276 30H109.146V17.5H107.276V30Z" fill="white"/>
<path d="M10.7759 7.53997C10.4859 7.84997 10.3159 8.32997 10.3159 8.93997V31.06C10.3159 31.68 10.4859 32.16 10.7759 32.46L10.8459 32.53L23.2359 20.15V20V19.85L10.8459 7.46997L10.7759 7.53997Z" fill="url(#paint0_linear_1345_44)"/>
<path d="M27.366 24.28L23.236 20.15V20V19.85L27.366 15.72L27.456 15.77L32.346 18.55C33.746 19.34 33.746 20.64 32.346 21.44L27.456 24.22L27.366 24.28Z" fill="url(#paint1_linear_1345_44)"/>
<path d="M27.4559 24.23L23.2359 20L10.7759 32.46C11.2359 32.95 11.9959 33.01 12.8559 32.52L27.4559 24.23Z" fill="url(#paint2_linear_1345_44)"/>
<path d="M27.4559 15.78L12.8459 7.47999C11.9859 6.98999 11.2259 7.04999 10.7659 7.53999L23.2359 20L27.4559 15.78Z" fill="url(#paint3_linear_1345_44)"/>
<path opacity="0.2" d="M27.3659 24.1299L12.8459 32.3799C12.0359 32.8399 11.3059 32.8099 10.8459 32.3899L10.7759 32.4599L10.8459 32.5299C11.3159 32.9499 12.0359 32.9799 12.8459 32.5199L27.4559 24.2199L27.3659 24.1299Z" fill="black"/>
<path opacity="0.12" d="M10.7759 32.3199C10.4859 32.0099 10.3159 31.5299 10.3159 30.9199V31.0699C10.3159 31.6899 10.4859 32.1699 10.7759 32.4699L10.8459 32.3999L10.7759 32.3199Z" fill="black"/>
<path opacity="0.12" d="M32.346 21.3L27.356 24.13L27.446 24.22L32.336 21.44C33.036 21.04 33.386 20.52 33.386 20C33.336 20.47 32.986 20.94 32.346 21.3Z" fill="black"/>
<path opacity="0.25" d="M12.8459 7.61994L32.3459 18.6999C32.9759 19.0599 33.3359 19.5199 33.3959 19.9999C33.3959 19.4799 33.0459 18.9499 32.3459 18.5599L12.8459 7.47994C11.4459 6.68994 10.3059 7.34994 10.3059 8.94994V9.09994C10.3059 7.48994 11.4559 6.82994 12.8459 7.61994Z" fill="white"/>
<path d="M42.4459 14.27H41.7059V12.26H42.2959C42.8159 11.81 43.0659 11.05 43.0559 9.96V7H47.0659V12.26H47.7359V14.27H46.9959V13H42.4459V14.27ZM43.8359 9.97C43.8459 10.92 43.6559 11.68 43.2659 12.27H46.2959V7.74H43.8359V9.97Z" fill="white" stroke="white" stroke-width="0.2" stroke-miterlimit="10"/>
<path d="M53.7459 12.2201C53.1559 12.8301 52.4259 13.1301 51.5459 13.1301C50.6659 13.1301 49.9359 12.8301 49.3459 12.2201C48.7559 11.6101 48.4659 10.8701 48.4659 10.0001C48.4659 9.13012 48.7559 8.38012 49.3459 7.78012C49.9359 7.17012 50.6659 6.87012 51.5459 6.87012C52.4159 6.87012 53.1459 7.17012 53.7459 7.78012C54.3359 8.39012 54.6359 9.13012 54.6359 10.0001C54.6359 10.8801 54.3359 11.6201 53.7459 12.2201ZM49.9159 11.7201C50.3559 12.1701 50.9059 12.3901 51.5459 12.3901C52.1859 12.3901 52.7359 12.1701 53.1759 11.7201C53.6159 11.2701 53.8459 10.7001 53.8459 10.0001C53.8459 9.30012 53.6259 8.73012 53.1759 8.28012C52.7359 7.83012 52.1959 7.60012 51.5459 7.60012C50.9059 7.60012 50.3559 7.82012 49.9159 8.27012C49.4759 8.73012 49.2559 9.30012 49.2559 10.0001C49.2559 10.7001 49.4759 11.2701 49.9159 11.7201Z" fill="white" stroke="white" stroke-width="0.2" stroke-miterlimit="10"/>
<path d="M58.516 13.1301C57.636 13.1301 56.896 12.8301 56.296 12.2301C55.696 11.6301 55.396 10.8901 55.396 9.9901C55.396 9.1001 55.696 8.3501 56.296 7.7501C56.896 7.1501 57.636 6.8501 58.516 6.8501C59.416 6.8501 60.156 7.1801 60.716 7.8301L60.176 8.3501C59.766 7.8401 59.216 7.5901 58.506 7.5901C57.856 7.5901 57.296 7.8101 56.846 8.2501C56.396 8.6901 56.176 9.2701 56.176 9.9801C56.176 10.6901 56.396 11.2701 56.846 11.7101C57.296 12.1501 57.846 12.3701 58.506 12.3701C59.226 12.3701 59.836 12.0801 60.346 11.5001L60.886 12.0401C60.616 12.3701 60.266 12.6301 59.856 12.8201C59.446 13.0401 58.996 13.1301 58.516 13.1301Z" fill="white" stroke="white" stroke-width="0.2" stroke-miterlimit="10"/>
<path d="M64.0159 13H63.2459V7.74H61.5659V7H65.6859V7.74H64.0059V13H64.0159Z" fill="white" stroke="white" stroke-width="0.2" stroke-miterlimit="10"/>
<path d="M70.9859 7L68.7159 12.06C68.4059 12.77 67.9359 13.13 67.3159 13.13C67.1359 13.13 66.9359 13.09 66.7159 13L66.9159 12.29C67.0459 12.36 67.1759 12.4 67.3159 12.4C67.4959 12.4 67.6359 12.37 67.7359 12.3C67.8359 12.23 67.9259 12.1 68.0059 11.92L68.2259 11.44L66.2059 7H67.1159L68.5959 10.44H68.6259L70.0759 7H70.9859Z" fill="white" stroke="white" stroke-width="0.2" stroke-miterlimit="10"/>
<path d="M71.856 13V7H76.196V13H75.426V7.74H72.626V13H71.856Z" fill="white" stroke="white" stroke-width="0.2" stroke-miterlimit="10"/>
<path d="M77.5659 13V7H78.3359V9.57H81.3359V7H82.1059V13H81.3359V10.29H78.3359V13H77.5659Z" fill="white" stroke="white" stroke-width="0.2" stroke-miterlimit="10"/>
<path d="M88.396 12.2201C87.806 12.8301 87.076 13.1301 86.196 13.1301C85.316 13.1301 84.586 12.8301 83.996 12.2201C83.406 11.6101 83.116 10.8701 83.116 10.0001C83.116 9.13012 83.406 8.38012 83.996 7.78012C84.586 7.17012 85.316 6.87012 86.196 6.87012C87.066 6.87012 87.796 7.17012 88.396 7.78012C88.986 8.39012 89.286 9.13012 89.286 10.0001C89.276 10.8801 88.986 11.6201 88.396 12.2201ZM84.566 11.7201C85.006 12.1701 85.556 12.3901 86.196 12.3901C86.836 12.3901 87.386 12.1701 87.826 11.7201C88.266 11.2701 88.496 10.7001 88.496 10.0001C88.496 9.30012 88.276 8.73012 87.826 8.28012C87.376 7.83012 86.836 7.60012 86.196 7.60012C85.556 7.60012 85.006 7.82012 84.566 8.27012C84.116 8.73012 83.896 9.30012 83.896 10.0001C83.896 10.7001 84.116 11.2701 84.566 11.7201Z" fill="white" stroke="white" stroke-width="0.2" stroke-miterlimit="10"/>
<path d="M92.4259 13V7H94.5959C95.0659 7 95.4759 7.16 95.8159 7.46C96.1659 7.78 96.3359 8.17 96.3359 8.63C96.3359 8.92 96.2659 9.17 96.1159 9.38C95.9659 9.6 95.7759 9.76 95.5259 9.87V9.9C95.8259 10 96.0659 10.17 96.2559 10.42C96.4459 10.67 96.5459 10.95 96.5459 11.27C96.5459 11.76 96.3659 12.17 96.0059 12.49C95.6359 12.84 95.2059 13 94.7159 13H92.4259ZM93.1959 9.57H94.5959C94.8859 9.57 95.1159 9.47 95.2959 9.28C95.4759 9.09 95.5559 8.88 95.5559 8.65C95.5559 8.42 95.4759 8.21 95.2959 8.02C95.1259 7.83 94.9059 7.73 94.6259 7.73H93.1959V9.57ZM93.1959 12.26H94.7459C95.0459 12.26 95.2859 12.16 95.4659 11.95C95.6459 11.74 95.7459 11.52 95.7459 11.27C95.7459 11.02 95.6559 10.8 95.4559 10.6C95.2659 10.4 95.0159 10.29 94.7059 10.29H93.1859V12.26H93.1959Z" fill="white" stroke="white" stroke-width="0.2" stroke-miterlimit="10"/>
</g>
<defs>
<linearGradient id="paint0_linear_1345_44" x1="22.1355" y1="8.70977" x2="5.35312" y2="25.4922" gradientUnits="userSpaceOnUse">
<stop stop-color="#00A0FF"/>
<stop offset="0.00657445" stop-color="#00A1FF"/>
<stop offset="0.2601" stop-color="#00BEFF"/>
<stop offset="0.5122" stop-color="#00D2FF"/>
<stop offset="0.7604" stop-color="#00DFFF"/>
<stop offset="1" stop-color="#00E3FF"/>
</linearGradient>
<linearGradient id="paint1_linear_1345_44" x1="34.1703" y1="20.0015" x2="9.97336" y2="20.0015" gradientUnits="userSpaceOnUse">
<stop stop-color="#FFE000"/>
<stop offset="0.4087" stop-color="#FFBD00"/>
<stop offset="0.7754" stop-color="#FFA500"/>
<stop offset="1" stop-color="#FF9C00"/>
</linearGradient>
<linearGradient id="paint2_linear_1345_44" x1="25.1628" y1="22.2962" x2="2.40448" y2="45.0545" gradientUnits="userSpaceOnUse">
<stop stop-color="#FF3A44"/>
<stop offset="1" stop-color="#C31162"/>
</linearGradient>
<linearGradient id="paint3_linear_1345_44" x1="7.63307" y1="0.176287" x2="17.7957" y2="10.3388" gradientUnits="userSpaceOnUse">
<stop stop-color="#32A071"/>
<stop offset="0.0685" stop-color="#2DA771"/>
<stop offset="0.4762" stop-color="#15CF74"/>
<stop offset="0.8009" stop-color="#06E775"/>
<stop offset="1" stop-color="#00F076"/>
</linearGradient>
<clipPath id="clip0_1345_44">
<rect width="135" height="40" fill="white" transform="translate(0.335938)"/>
</clipPath>
</defs>
</svg>
